# xmcd
#
# Track frame offsets:
#	150
#	13546
#	23219
#	33949
#	46539
#	59114
#	73353
#	85779
#	97625
#	109073
#	122506
#	135575
#
# Disc length: 2001 seconds
#
# Revision: 0
# Processed by: cddbd v1.5.2PL0 Copyright (c) Steve Scherf et al.
# Submitted via: audiograbber 1.83.01
#
DISCID=9207cf0c
DTITLE=Διάφοροι - 12 ερωτικά τραγούδια
DYEAR=1900
DGENRE=Folk
TTITLE0=Γιάννης Πουλόπουλος - Νάχα τη δύναμη
TTITLE1=Καίτη Χωματά - Μιά αγάπη γιά το καλοκαίρι
TTITLE2=Κώστας Καράλης - Εφυγες
TTITLE3=Αρλέτα - Φώναξε με
TTITLE4=Γιάννης Πουλόπουλος - Αυτοί πού φεύγουν κι αυτοί πού μένουν
TTITLE5=Ρένα Κουμιώτη - Δώσε μου το στόμα σου
TTITLE6=Μπέμπα Μπλανς - Μετράω κάθε στεναγμό
TTITLE7=Γιάννης Πουλόπουλος - Ποιά νύχτα σ'έκλεψε
TTITLE8=Ρένα Κουμιώτη - Αγαπιόμασταν
TTITLE9=Καίτη Χωματά - Κι αν λέω σ'αγαπώ δεν σ'ορίζω
TTITLE10=Κώστας Καράλης - Τοίχο τοίχο
TTITLE11=Ρένα Κουμιώτη - Σταμάτησε του ρολογιού τούς δείκτες
EXTD=
EXTT0=
EXTT1=
EXTT2=
EXTT3=
EXTT4=
EXTT5=
EXTT6=
EXTT7=
EXTT8=
EXTT9=
EXTT10=
EXTT11=
PLAYORDER=
